#!OML:ASF E:\Mandelcareful walks\Project 1\Capture day 1\Session 1\Subject1.ASF
:FULLY-SPECIFIED
:DEGREES
187
root -10.3597 2.39735 0.832811 174.595 12.6066 -102.173
lowerback 33.6765 1.39124 8.96618
upperback 17.0974 10.6974 9.47921
thorax 1.22681 8.0528 2.24857
lowerneck -18.5392 2.88635 4.13942
upperneck 49.93 6.87094 13.7255
head 25.6468 6.79508 10.3388
rclavicle -4.13472e-014 -6.36111e-015
rhumerus 24.0383 41.9847 -46.6166
rradius 93.0043
rwrist 2.09743
rhand -7.6753 -20.0035
rfingers 7.12502
rthumb 18.2212 -49.1701
lclavicle -4.13472e-014 -6.36111e-015
lhumerus 55.5999 -23.9714 12.9032
lradius 56.5861
lwrist -12.3555
lhand 0.469973 1.64059
lfingers 7.12502
lthumb 26.0404 29.8759
rfemur -26.9655 -8.19201 17.012
rtibia 77.3192
rfoot 14.5211 -4.00197
rtoes -4.04752
lfemur -54.4969 -13.0054 -13.6327
ltibia 44.9973
lfoot 17.3041 12.6022
ltoes 2.81604
188
root -10.3624 2.42415 0.830961 175.08 12.1419 -104.569
lowerback 33.0541 2.07419 7.00779
upperback 17.1918 10.7399 9.17713
thorax 1.29655 7.89032 2.93579
lowerneck -18.5724 2.8881 3.85948
upperneck 49.7686 6.87875 13.702
head 25.4384 6.72574 10.2943
rclavicle 5.40694e-014 -3.18055e-014
rhumerus 24.9309 41.8457 -45.6118
rradius 92.9915
rwrist 1.99784
rhand -7.70739 -20.5911
rfingers 7.12502
rthumb 18.1904 -49.7605
lclavicle 5.40694e-014 -3.18055e-014
lhumerus 55.3379 -23.3602 13.3129
lradius 57.3005
lwrist -12.3368
lhand 0.668041 1.46076
lfingers 7.12502
lthumb 26.2301 29.668
rfemur -27.8814 -8.44195 14.6522
rtibia 77.7455
rfoot 14.6894 -3.69947
rtoes -4.46806
lfemur -55.5096 -13.3236 -15.8849
ltibia 45.149
lfoot 17.1787 12.6618
ltoes 2.4339
189
root -10.366 2.44801 0.824521 175.156 11.9677 -105.361
lowerback 33.4389 2.27223 6.58007
upperback 17.2392 10.9644 9.15405
thorax 1.13879 7.98612 3.01771
lowerneck -18.2326 2.83891 3.65241
upperneck 49.5927 6.86572 13.5775
head 25.049 6.68153 10.0979
rclavicle 1.68569e-013 4.77083e-014
rhumerus 25.4549 41.6973 -44.8237
rradius 92.873
rwrist 2.07924
rhand -7.50131 -21.0006
rfingers 7.12502
rthumb 18.3886 -50.1515
lclavicle 1.68569e-013 4.77083e-014
lhumerus 55.0945 -23.0112 13.7354
lradius 58.0117
lwrist -12.3952
lhand 0.40589 1.33662
lfingers 7.12502
lthumb 25.9791 29.5809
rfemur -27.7224 -8.34826 14.0663
rtibia 77.6875
rfoot 14.696 -3.95446
rtoes -4.97824
lfemur -55.575 -13.4427 -16.6096
ltibia 44.981
lfoot 17.1395 12.4863
ltoes 1.63661
190
root -10.3473 2.45789 0.815087 175.255 11.8329 -105.644
lowerback 33.7513 2.24976 6.73872
upperback 17.401 11.1282 9.12779
thorax 1.23261 8.12638 2.86143
lowerneck -18.0053 2.85623 3.36462
upperneck 49.3866 6.83274 13.8479
head 24.6676 6.66531 10.1686
rclavicle -1.27222e-014 -4.77083e-014
rhumerus 26.1851 41.3969 -43.9679
rradius 92.812
rwrist 2.10343
rhand -7.45919 -21.5739
rfingers 7.12502
rthumb 18.4291 -50.7209
lclavicle -1.27222e-014 -4.77083e-014
lhumerus 54.8482 -22.5205 14.1691
lradius 58.6298
lwrist -12.6091
lhand -0.24873 0.982007
lfingers 7.12502
lthumb 25.3521 29.3168
rfemur -27.5975 -8.337 13.9803
rtibia 77.7337
rfoot 14.4602 -4.414
rtoes -4.89482
lfemur -55.8081 -13.5514 -16.82
ltibia 45.0268
lfoot 17.1254 12.394
ltoes 1.10651
191
root -10.3156 2.4675 0.806047 175.586 11.7148 -105.405
lowerback 33.9068 2.16583 7.35081
upperback 17.5418 11.3484 9.14299
thorax 1.42864 8.33131 2.53149
lowerneck -18.0761 2.91894 3.0344
upperneck 49.1023 6.64082 14.6627
head 24.3606 6.65603 10.5821
rclavicle -3.49861e-014 -5.725e-014
rhumerus 26.9705 41.0168 -43.1178
rradius 92.6133
rwrist 1.95124
rhand -8.45739 -21.8153
rfingers 7.12502
rthumb 17.4687 -51.0504
lclavicle -3.49861e-014 -5.725e-014
lhumerus 54.7779 -22.1066 14.6379
lradius 59.1388
lwrist -12.9102
lhand -0.763365 0.50749
lfingers 7.12502
lthumb 24.859 28.9113
rfemur -27.5543 -8.20279 14.5258
rtibia 77.7495
rfoot 14.0241 -5.04162
rtoes -6.10812
lfemur -56.4685 -13.5611 -16.4468
ltibia 45.4614
lfoot 17.0001 12.3519
ltoes 1.38341
192
root -10.2839 2.47453 0.792612 176.175 11.5657 -105.021
lowerback 34.0003 2.10877 8.12728
upperback 17.5126 11.6141 9.24613
thorax 1.47348 8.53862 2.18117
lowerneck -18.242 2.85323 2.6371
upperneck 48.949 6.35961 15.4023
head 24.275 6.57865 11.0303
rclavicle -3.81667e-014 -1.30403e-013
rhumerus 27.4868 40.7683 -42.2181
rradius 92.4609
rwrist 2.05626
rhand -9.72731 -21.9379
rfingers 7.12502
rthumb 16.2462 -51.2772
lclavicle -3.81667e-014 -1.30403e-013
lhumerus 54.7377 -21.9483 15.3146
lradius 59.6377
lwrist -13.1839
lhand -0.775124 0.231791
lfingers 7.12502
lthumb 24.8477 28.6371
rfemur -27.7238 -8.21308 15.1925
rtibia 77.766
rfoot 13.2039 -5.99525
rtoes -6.12912
lfemur -57.4661 -13.5514 -15.9176
ltibia 46.0418
lfoot 16.8855 12.2629
ltoes 1.60271
193
root -10.2548 2.4874 0.773362 176.729 11.4907 -105.269
lowerback 34.1141 2.15379 8.39898
upperback 17.4115 11.7724 9.08371
thorax 1.40833 8.62679 1.81957
lowerneck -18.0905 2.95436 2.4016
upperneck 48.6834 6.24627 16.3822
head 23.8956 6.66701 11.5138
rclavicle 6.36111e-015 9.54166e-015
rhumerus 27.9443 40.5991 -41.5954
rradius 92.3818
rwrist 2.53842
rhand -10.2113 -22.5298
rfingers 7.12502
rthumb 15.7802 -51.9066
lclavicle 6.36111e-015 9.54166e-015
lhumerus 54.3854 -21.4955 15.1457
lradius 60.7072
lwrist -12.6708
lhand -0.341845 0.36391
lfingers 7.12502
lthumb 25.2629 28.7113
rfemur -27.968 -8.13593 15.0763
rtibia 77.7085
rfoot 12.5149 -6.55265
rtoes -4.47755
lfemur -58.4226 -13.6292 -15.9315
ltibia 46.4619
lfoot 16.7815 12.4052
ltoes 1.45118
194
root -10.2331 2.51077 0.756131 177.193 11.3549 -105.878
lowerback 34.2604 2.25854 8.27388
upperback 17.2598 11.833 8.80406
thorax 1.23277 8.61693 1.54046
lowerneck -17.9344 3.15644 3.16461
upperneck 48.7728 6.95053 14.6973
head 23.8809 6.80497 10.4454
rclavicle -1.01778e-013 -3.81667e-014
rhumerus 28.3695 40.4641 -41.1689
rradius 92.3704
rwrist 2.92562
rhand -10.004 -23.5324
rfingers 7.12502
rthumb 15.9798 -52.8933
lclavicle -1.01778e-013 -3.81667e-014
lhumerus 53.793 -21.0482 14.5649
lradius 61.7737
lwrist -13.4961
lhand -1.07501 0.442602
lfingers 7.12502
lthumb 24.5603 28.8873
rfemur -28.0446 -7.82111 14.5081
rtibia 77.5026
rfoot 11.8435 -7.5244
rtoes -0.841351
lfemur -59.2004 -13.7782 -16.3019
ltibia 46.6704
lfoot 16.6691 12.6049
ltoes 1.54857
195
root -10.2338 2.53463 0.755266 177.098 11.2033 -106.527
lowerback 35.1465 2.4479 7.95312
upperback 17.1454 12.1574 8.71032
thorax 0.763983 8.75485 1.38373
lowerneck -17.8983 3.10989 3.65442
upperneck 48.7386 7.08778 13.5566
head 23.9114 6.76492 9.67846
rclavicle -4.45278e-014 -5.08889e-014
rhumerus 28.3946 39.9447 -40.7739
rradius 92.3501
rwrist 3.08336
rhand -9.60077 -23.3473
rfingers 7.12502
rthumb 16.3681 -52.6767
lclavicle -4.45278e-014 -5.08889e-014
lhumerus 53.8109 -21.1724 15.4915
lradius 62.1507
lwrist -14.5029
lhand -0.162643 0.570773
lfingers 7.12502
lthumb 25.4346 28.8938
rfemur -27.5047 -7.52109 13.8171
rtibia 77.2025
rfoot 11.6407 -8.22722
rtoes 0.817351
lfemur -59.0133 -13.3164 -17.3736
ltibia 46.5846
lfoot 16.6503 12.0041
ltoes 2.21422
196
root -10.223 2.54473 0.751119 177.066 11.0569 -107.004
lowerback 35.6472 2.45851 7.86235
upperback 17.3226 12.3236 8.64788
thorax 0.787001 8.88322 1.29015
lowerneck -18.0971 3.16016 3.5003
upperneck 48.4876 7.04234 13.5987
head 23.7357 6.70682 9.65308
rclavicle -1.46306e-013 -4.45278e-014
rhumerus 28.938 39.1522 -40.0197
rradius 92.2249
rwrist 3.15199
rhand -8.81851 -22.8167
rfingers 7.12502
rthumb 17.1211 -52.0823
lclavicle -1.46306e-013 -4.45278e-014
lhumerus 53.598 -20.5471 15.8714
lradius 62.8576
lwrist -14.1064
lhand 0.525844 -0.232123
lfingers 7.12502
lthumb 26.0939 27.9953
rfemur -27.1909 -7.45935 13.2814
rtibia 77.1431
rfoot 11.9023 -7.66812
rtoes -1.41326
lfemur -58.9894 -13.2095 -18.0393
ltibia 46.5009
lfoot 16.7186 11.8123
ltoes 2.6978
197
root -10.21 2.5573 0.741278 177.674 10.5488 -107.178
lowerback 35.2057 2.38772 8.1172
upperback 17.4895 12.3008 8.69925
thorax 1.15534 8.91776 1.30936
lowerneck -18.2156 3.25323 3.6426
upperneck 48.2849 7.19567 13.1063
head 23.5978 6.69444 9.30175
rclavicle -1.59028e-014 -6.36111e-014
rhumerus 29.4174 38.5243 -39.2166
rradius 92.2574
rwrist 3.15849
rhand -8.32539 -24.0603
rfingers 7.12502
rthumb 17.5957 -53.284
lclavicle -1.59028e-014 -6.36111e-014
lhumerus 53.4 -20.0721 16.0092
lradius 63.8684
lwrist -13.6228
lhand 0.546919 0.789942
lfingers 7.12502
lthumb 26.1141 29.0144
rfemur -27.5153 -7.79508 13.136
rtibia 77.2762
rfoot 12.7692 -7.10399
rtoes -1.40167
lfemur -59.7052 -13.5305 -18.1484
ltibia 46.4436
lfoot 16.6793 11.7741
ltoes 2.59181
198
root -10.184 2.56604 0.738432 178.22 10.51 -107.13
lowerback 35.2807 2.39247 8.46877
upperback 17.5222 12.4791 8.68452
thorax 1.2373 9.0467 1.08098
lowerneck -18.3431 3.44893 3.91213
upperneck 48.2706 7.49063 13.04
head 23.6138 6.82719 9.27729
rclavicle -1.90833e-014 -1.33583e-013
rhumerus 29.8134 38.312 -38.352
rradius 92.4216
rwrist 2.93371
rhand -9.60082 -25.4826
rfingers 7.12502
rthumb 16.368 -54.8119
lclavicle -1.90833e-014 -1.33583e-013
lhumerus 52.9925 -19.7171 16.0426
lradius 64.8313
lwrist -13.3113
lhand -0.496191 1.2197
lfingers 7.12502
lthumb 25.115 29.5879
rfemur -27.859 -7.57696 13.2761
rtibia 77.443
rfoot 13.0703 -7.05591
rtoes -1.0183
lfemur -60.4459 -13.4288 -17.9402
ltibia 46.5562
lfoot 16.6092 11.7292
ltoes 2.73597
199
root -10.1541 2.56318 0.73329 178.663 10.4472 -107.269
lowerback 35.4337 2.32034 8.81881
upperback 17.5761 12.5726 8.55047
thorax 1.34438 9.1424 0.756633
lowerneck -18.3737 3.53867 4.0246
upperneck 48.1787 7.65468 12.7818
head 23.5351 6.85331 9.10214
rclavicle 8.90555e-014 -6.99722e-014
rhumerus 30.249 37.9397 -37.4919
rradius 92.5117
rwrist 2.61352
rhand -10.7226 -25.971
rfingers 7.12502
rthumb 15.2877 -55.386
lclavicle 8.90555e-014 -6.99722e-014
lhumerus 52.5221 -19.2182 16.1586
lradius 65.7095
lwrist -13.9155
lhand -1.3441 0.933861
lfingers 7.12502
lthumb 24.3024 29.4133
rfemur -28.1188 -7.52223 13.0847
rtibia 77.6077
rfoot 13.232 -6.8942
rtoes -2.1418
lfemur -61.212 -13.4382 -17.9556
ltibia 46.7344
lfoot 17.0076 11.4901
ltoes 2.49729
